Coordinates
version=1
nRows=16
nColumns=40
inDegrees=yes

Units are S.I. units (second, meters, Newtons, ...)
Angles are in degrees.

endheader
time	pelvis_tilt	pelvis_list	pelvis_rotation	pelvis_tx	pelvis_ty	pelvis_tz	hip_flexion_r	hip_adduction_r	hip_rotation_r	knee_angle_r	knee_angle_r_beta	ankle_angle_r	subtalar_angle_r	mtp_angle_r	hip_flexion_l	hip_adduction_l	hip_rotation_l	knee_angle_l	knee_angle_l_beta	ankle_angle_l	subtalar_angle_l	mtp_angle_l	lumbar_extension	lumbar_bending	lumbar_rotation	arm_flex_r	arm_add_r	arm_rot_r	elbow_flex_r	pro_sup_r	wrist_flex_r	wrist_dev_r	arm_flex_l	arm_add_l	arm_rot_l	elbow_flex_l	pro_sup_l	wrist_flex_l	wrist_dev_l
     14.56750000	     -2.43505983	     -7.00404977	     -2.32957310	      0.94446086	      0.91834598	      0.48358497	     21.12248720	      5.48197880	    -12.13968868	     22.59255126	     22.59255126	      6.84276655	     -1.23732917	     -3.96073138	     17.58178803	    -14.59627066	     -2.64622233	     60.54287031	     60.54287031	     16.20395060	    -19.42998234	     18.84287687	    -11.37128383	      8.40575472	      2.94747215	      6.35650685	    -14.91004381	    -10.69906082	     32.46148599	     46.64003626	      0.00000000	      0.00000000	     -3.59969298	     -8.14574510	     -9.16101345	     54.28639651	     46.84684369	      0.00000000	      0.00000000
     14.58000000	     -2.42072171	     -7.11880314	     -2.04898427	      0.94437601	      0.91948434	      0.48568245	     20.35162235	      5.71137245	    -12.38183359	     22.18592075	     22.18592075	      7.33232805	     -0.99983782	     -4.04034381	     19.58650078	    -14.94022901	     -2.07715326	     63.07948349	     63.07948349	     15.11941894	    -19.45012757	     19.22063301	    -11.36949924	      8.45565118	      3.27789006	      7.01996973	    -15.00503335	    -10.53523219	     33.11472387	     46.60258629	      0.00000000	      0.00000000	     -3.73905259	     -8.10456170	     -9.10867609	     53.96081260	     46.83856858	      0.00000000	      0.00000000
     14.59250000	     -2.40968135	     -7.14928795	     -1.78120647	      0.94418234	      0.92064771	      0.48760881	     19.58028586	      5.84313632	    -12.64941419	     21.75862146	     21.75862146	      7.76664377	     -0.66667162	     -4.12607179	     21.48822735	    -15.10198835	     -1.54233977	     65.08265899	     65.08265899	     14.31690905	    -19.46262403	     19.58051120	    -11.34761281	      8.41729982	      3.35387183	      7.83698810	    -15.02130919	    -10.34119915	     34.04948475	     46.55305936	      0.00000000	      0.00000000	     -3.98174420	     -8.18024825	     -9.05266527	     53.42811044	     46.82661722	      0.00000000	      0.00000000
     14.60500000	     -2.39134185	     -7.04725665	     -1.52312547	      0.94392109	      0.92179972	      0.48920673	     18.81881610	      5.76038942	    -13.09830319	     21.37844295	     21.37844295	      8.20308479	      0.13043499	     -4.34307660	     23.29296788	    -15.00185105	     -1.04509686	     66.60828251	     66.60828251	     14.18669023	    -19.45871379	     21.00204417	    -11.37131503	      8.28372419	      3.80198698	      7.20748569	    -15.71189081	     -8.05766056	     38.17761360	     46.20408113	      0.00000000	      0.00000000	     -3.67098231	     -8.11350993	     -9.10318161	     51.71579301	     46.82296995	      0.00000000	      0.00000000
     14.61750000	     -2.34937060	     -6.97956039	     -1.27715357	      0.94356783	      0.92298445	      0.49079924	     18.02225276	      5.78708196	    -13.32442462	     20.94780257	     20.94780257	      8.56977843	      0.51171283	     -4.39803890	     24.89657434	    -14.96872975	     -0.68902307	     67.48285511	     67.48285511	     13.71191413	    -19.43375274	     20.62671426	    -11.39304637	      8.14447657	      3.75084324	      8.08621880	    -15.79522418	     -7.43396792	     39.51594615	     46.11063637	      0.00000000	      0.00000000	     -4.10489988	     -8.29818470	     -9.00744811	     51.21521396	     46.80688112	      0.00000000	      0.00000000
     14.63000000	     -2.36024289	     -6.90266197	     -1.03974240	      0.94310370	      0.92404924	      0.49220833	     17.28332380	      5.79021325	    -13.58571355	     20.50163029	     20.50163029	      8.90136768	      0.94925149	     -4.43641267	     26.45885713	    -14.88641345	     -0.38534011	     67.85338196	     67.85338196	     13.47443722	    -19.40933414	     20.37206746	    -11.36523040	      8.00791564	      3.82887394	      8.90516382	    -15.90912458	     -7.04465144	     40.71344375	     46.04228817	      0.00000000	      0.00000000	     -4.46953083	     -8.39531345	     -9.06101538	     50.70524602	     46.80341154	      0.00000000	      0.00000000
     14.64250000	     -2.33881805	     -6.76034721	     -0.81812956	      0.94258072	      0.92510401	      0.49335167	     16.55964124	      5.67108099	    -13.94417959	     20.16531956	     20.16531956	      9.29361953	      1.62300746	     -4.41775959	     27.81843420	    -14.73194154	     -0.23092835	     67.65026052	     67.65026052	     13.24089403	    -19.38040126	     19.75897453	    -11.41375942	      7.85575425	      4.21098840	      8.95214832	    -16.56637683	     -5.32709676	     43.66596086	     45.82265300	      0.00000000	      0.00000000	     -4.51308750	     -8.28749171	     -9.59996260	     49.74127375	     46.84148629	      0.00000000	      0.00000000
     14.65500000	     -2.34146117	     -6.61028608	     -0.60819715	      0.94193558	      0.92617946	      0.49440238	     15.81248777	      5.61346726	    -14.03765746	     19.67761456	     19.67761456	      9.52766766	      1.90451564	     -4.36153602	     29.06908219	    -14.54881511	     -0.12592110	     66.92634303	     66.92634303	     13.23844770	    -19.34629107	     19.65731702	    -11.43406297	      7.66182393	      4.28998414	     10.02264362	    -16.60014251	     -5.24695133	     44.53762480	     45.79079618	      0.00000000	      0.00000000	     -4.96139447	     -8.39843181	     -9.61364964	     49.31072046	     46.83279295	      0.00000000	      0.00000000
     14.66750000	     -2.23033707	     -6.51814276	     -0.34474773	      0.94137895	      0.92731116	      0.49524176	     14.93257884	      5.56825230	    -14.38636407	     19.20873873	     19.20873873	      9.85952011	      2.44260316	     -4.32794058	     30.05164964	    -14.43717757	     -0.08649652	     65.71195209	     65.71195209	     13.22097957	    -19.30605878	     19.47162073	    -11.51412035	      7.57603215	      4.22396660	     11.03648661	    -16.56786228	     -4.95185375	     45.98565391	     45.72586710	      0.00000000	      0.00000000	     -5.42973778	     -8.50734088	     -9.77965660	     48.61158584	     46.83462688	      0.00000000	      0.00000000
     14.68000000	     -2.19500130	     -6.40369906	     -0.10717219	      0.94066945	      0.92824050	      0.49584556	     14.20744194	      5.45153212	    -14.79055682	     18.87281876	     18.87281876	     10.30750393	      3.16723918	     -4.01418418	     30.94991454	    -14.31233502	     -0.16103109	     64.00660535	     64.00660535	     13.03858390	    -19.29533388	     18.84667436	    -11.59625625	      7.52054291	      4.64299120	     11.09328159	    -17.37926993	     -3.38132061	     49.33093267	     45.52527592	      0.00000000	      0.00000000	     -5.29710024	     -8.21789181	    -10.79834808	     47.32209288	     46.90657253	      0.00000000	      0.00000000
     14.69250000	     -2.16667928	     -6.27357491	      0.12675607	      0.93993636	      0.92913805	      0.49633600	     13.46405257	      5.38245945	    -14.92788465	     18.44021408	     18.44021408	     10.53194572	      3.37076952	     -3.95879838	     31.70768571	    -14.14949054	     -0.27707267	     61.90110755	     61.90110755	     13.03360632	    -19.27101776	     18.98283883	    -11.60174522	      7.42613233	      4.81201180	     12.22656742	    -17.36368283	     -3.36806977	     50.21714226	     45.49885296	      0.00000000	      0.00000000	     -5.75219683	     -8.27891952	    -10.84003992	     46.90881367	     46.89900197	      0.00000000	      0.00000000
     14.70500000	     -2.05766490	     -6.25392168	      0.41405310	      0.93922325	      0.93002211	      0.49666531	     12.55385052	      5.40579847	    -15.31483625	     17.87178815	     17.87178815	     10.79800960	      3.95896945	     -3.87290136	     32.26183607	    -14.07318133	     -0.34956055	     59.43728335	     59.43728335	     12.94398653	    -19.23464261	     19.01737335	    -11.74075384	      7.48854713	      4.67498248	     13.37295119	    -17.31805803	     -3.12855369	     51.93406625	     45.43309304	      0.00000000	      0.00000000	     -6.18819225	     -8.28460583	    -11.07922895	     46.08694069	     46.90428215	      0.00000000	      0.00000000
     14.71750000	     -2.03138055	     -6.15291124	      0.66616091	      0.93844473	      0.93071462	      0.49680644	     11.80678148	      5.31655996	    -15.68334912	     17.44074383	     17.44074383	     11.17793931	      4.56549467	     -3.68175821	     32.69179674	    -13.91119942	     -0.56428203	     56.56729938	     56.56729938	     12.59572677	    -19.21443931	     18.62776470	    -11.76955726	      7.48827280	      5.05471449	     13.71170311	    -17.86157734	     -2.19468715	     54.90924344	     45.29664592	      0.00000000	      0.00000000	     -6.07758089	     -8.01259948	    -12.06262480	     44.73385994	     46.96799913	      0.00000000	      0.00000000
     14.73000000	     -2.05513082	     -6.05896574	      0.90665808	      0.93759241	      0.93122704	      0.49686868	     11.13423811	      5.28218092	    -15.79657533	     17.00771983	     17.00771983	     11.41793466	      4.66987079	     -3.66214446	     33.06659927	    -13.69506574	     -0.72798117	     53.46246408	     53.46246408	     12.39405217	    -19.16684355	     18.92234709	    -11.74014813	      7.47068135	      5.17524312	     14.94183408	    -17.77076097	     -2.22709537	     55.87932862	     45.27146212	      0.00000000	      0.00000000	     -6.49759041	     -8.02270892	    -12.10325565	     44.32614468	     46.95917495	      0.00000000	      0.00000000
     14.74250000	     -1.99923358	     -6.04379247	      1.17443323	      0.93678394	      0.93171259	      0.49679968	     10.30564650	      5.32865619	    -16.05461879	     16.45652260	     16.45652260	     11.65768245	      5.04719945	     -3.66974024	     33.24496427	    -13.49227768	     -0.80013172	     50.14809318	     50.14809318	     12.06252562	    -19.07096948	     18.89938549	    -11.79741139	      7.57437362	      5.04776847	     16.21707565	    -17.54520304	     -2.10005698	     57.48766119	     45.21901608	      0.00000000	      0.00000000	     -6.92271643	     -8.01693844	    -12.26113528	     43.58215458	     46.95645226	      0.00000000	      0.00000000
     14.75500000	     -2.04964315	     -5.94880247	      1.39898884	      0.93585867	      0.93198360	      0.49659649	      9.66456478	      5.27681520	    -16.21070146	     16.02479340	     16.02479340	     11.91730298	      5.26209566	     -3.73085600	     33.38744411	    -13.14963873	     -0.85542678	     46.61899704	     46.61899704	     11.58273001	    -18.90850802	     18.86671635	    -11.74260208	      7.58702810	      5.13103505	     17.35986468	    -17.40414714	     -1.95429275	     58.88581759	     45.17264137	      0.00000000	      0.00000000	     -7.24910114	     -8.00566726	    -12.40750551	     42.97800307	     46.95628602	      0.00000000	      0.00000000
